<svg width="100" height="100" viewBox="0 0 120 120" fill="none" xmlns="http://www.w3.org/2000/svg">
<g id="Group 4">
<g id="&#240;&#159;&#166;&#134; icon &#34;linkedin&#34;">
<path id="Vector" d="M19.9999 42.2505H37.6644V100H19.9999V42.2505ZM87.7706 45.8174C91.2808 47.7424 94.1683 50.6582 96.433 54.5648C98.6977 58.4713 99.83 62.4628 99.83 66.5393V100H81.9956V66.5393C81.9956 65.6334 81.6559 64.6143 80.9765 63.482C80.2971 62.3496 79.6743 61.6136 79.1082 61.2739C78.2023 60.7077 76.9567 60.4246 75.3714 60.4246C73.7861 60.4246 72.5406 60.6511 71.6347 61.104L64.3311 64.6709V100H46.4967V42.2505H64.3311V44.9682C67.8414 43.3829 71.8045 42.6469 76.2207 42.7601C80.6368 42.8733 84.4868 43.8924 87.7706 45.8174ZM28.8321 20C31.3233 20 33.4181 20.8493 35.1167 22.5478C36.8152 24.2463 37.6644 26.3411 37.6644 28.8323C37.6644 31.3234 36.8152 33.4466 35.1167 35.2017C33.4181 36.9568 31.3233 37.8344 28.8321 37.8344C26.341 37.8344 24.2462 36.9568 22.5476 35.2017C20.8491 33.4466 19.9999 31.3234 19.9999 28.8323C19.9999 26.3411 20.8491 24.2463 22.5476 22.5478C24.2462 20.8493 26.341 20 28.8321 20Z" fill="#9a9a9a"/>
</g>
<circle id="Ellipse 6" cx="60" cy="60" r="59.5" stroke="#9a9a9a"/>
</g>
</svg>
